<?xml version="1.0" encoding="UTF-8" standalone="no"?>
<svg
   width="94.860001mm"
   height="59.860001mm"
   viewBox="0 0 94.860001 59.860001"
   version="1.1"
   id="svg346"
   sodipodi:docname="PCB Holder.svg"
   inkscape:version="1.2 (dc2aeda, 2022-05-15)"
   xmlns:inkscape="http://www.inkscape.org/namespaces/inkscape"
   xmlns:sodipodi="http://sodipodi.sourceforge.net/DTD/sodipodi-0.dtd"
   xmlns="http://www.w3.org/2000/svg"
   xmlns:svg="http://www.w3.org/2000/svg">
  <defs
     id="defs350" />
  <sodipodi:namedview
     id="namedview348"
     pagecolor="#ffffff"
     bordercolor="#000000"
     borderopacity="0.25"
     inkscape:showpageshadow="2"
     inkscape:pageopacity="0.0"
     inkscape:pagecheckerboard="0"
     inkscape:deskcolor="#d1d1d1"
     inkscape:document-units="mm"
     showgrid="false"
     inkscape:zoom="4.1725136"
     inkscape:cx="127.02176"
     inkscape:cy="76.093221"
     inkscape:window-width="2719"
     inkscape:window-height="1287"
     inkscape:window-x="283"
     inkscape:window-y="163"
     inkscape:window-maximized="0"
     inkscape:current-layer="svg346" />
  <g
     id="Sketch"
     transform="matrix(1,0,0,-1,13.63,29.93)"
     style="stroke:#000000;stroke-opacity:1;stroke-linecap:round;stroke-linejoin:round">
    <path
       id="Sketch_w0000"
       d="M 3.7080992,1.5 A 4,4 0 0 1 1.5,3.7081 V 7 a 1.5,1.5 0 0 1 -3,0 V 3.7080992 A 4,4 0 0 1 -3.7081,1.5 H -7 a 1.5,1.5 0 0 1 0,-3 h 3.2919008 A 4,4 0 0 1 -1.5,-3.7081 V -7 a 1.5,1.5 0 0 1 3,0 v 3.2919008 A 4,4 0 0 1 3.7081,-1.5 H 7 a 1.5,1.5 0 1 1 0,3 H 3.7080992"
       stroke="#000000"
       stroke-width="0.35 px"
       style="fill:none;fill-opacity:1;fill-rule:evenodd;stroke-width:0.35;stroke-miterlimit:4;stroke-dasharray:none;stroke:#000000;stroke-opacity:1;stroke-linecap:round;stroke-linejoin:round" />
    <circle
       cx="0"
       cy="18.382"
       r="1.5"
       stroke="#000000"
       stroke-width="0.35 px"
       style="fill:none;stroke-width:0.35;stroke-miterlimit:4;stroke-dasharray:none;stroke:#000000;stroke-opacity:1;stroke-linecap:round;stroke-linejoin:round"
       id="circle323" />
    <circle
       cx="0"
       cy="-18.5"
       r="1.5"
       stroke="#000000"
       stroke-width="0.35 px"
       style="fill:none;stroke-width:0.35;stroke-miterlimit:4;stroke-dasharray:none;stroke:#000000;stroke-opacity:1;stroke-linecap:round;stroke-linejoin:round"
       id="circle325" />
    <path
       id="Sketch_w0003"
       d="m 51.2,-1 v 2 h -10 v -2 h 10"
       stroke="#000000"
       stroke-width="0.35 px"
       style="fill:none;fill-opacity:1;fill-rule:evenodd;stroke-width:0.35;stroke-miterlimit:4;stroke-dasharray:none;stroke:#000000;stroke-opacity:1;stroke-linecap:round;stroke-linejoin:round" />
    <path
       id="Sketch_w0004"
       d="m 19.2,29 h 8.25 v -2.54 a 1.25,1.25 0 0 1 2.5,0 V 29 h 43.37 v -1.905 a 1.1,1.1 0 1 1 2.2,0 V 29 h 3.28 a 1.5,1.5 0 0 0 1.5,-1.5 v -55 A 1.5,1.5 0 0 0 78.8,-29 h -1.7 v 2.83 a 1.1,1.1 0 1 1 -2.2,0 V -29 H 23.95 v 2.5 a 1.25,1.25 0 1 1 -2.5,0 V -29 H -11.2 a 1.5,1.5 0 0 0 -1.5,1.5 v 55 a 1.5,1.5 0 0 0 1.5,1.5 h 27.4 v -3.175 a 1.5,1.5 0 0 1 3,0 V 29"
       stroke="#000000"
       stroke-width="0.35 px"
       style="fill:none;fill-opacity:1;fill-rule:evenodd;stroke-width:0.35;stroke-miterlimit:4;stroke-dasharray:none;stroke:#0000ff;stroke-opacity:1;stroke-linecap:round;stroke-linejoin:round" />
    <circle
       cx="28.700001"
       cy="8.6800003"
       r="1.25"
       stroke="#000000"
       stroke-width="0.35 px"
       style="fill:none;stroke-width:0.35;stroke-miterlimit:4;stroke-dasharray:none;stroke:#000000;stroke-opacity:1;stroke-linecap:round;stroke-linejoin:round"
       id="circle329" />
    <circle
       cx="74.419998"
       cy="8.0450001"
       r="1.1"
       stroke="#000000"
       stroke-width="0.35 px"
       style="fill:none;stroke-width:0.35;stroke-miterlimit:4;stroke-dasharray:none;stroke:#000000;stroke-opacity:1;stroke-linecap:round;stroke-linejoin:round"
       id="circle331" />
    <circle
       cx="22.700001"
       cy="-6.5"
       r="1.25"
       stroke="#000000"
       stroke-width="0.35 px"
       style="fill:none;stroke-width:0.35;stroke-miterlimit:4;stroke-dasharray:none;stroke:#000000;stroke-opacity:1;stroke-linecap:round;stroke-linejoin:round"
       id="circle333" />
    <circle
       cx="56.5"
       cy="2.3299999"
       r="1.1"
       stroke="#000000"
       stroke-width="0.35 px"
       style="fill:none;stroke-width:0.35;stroke-miterlimit:4;stroke-dasharray:none;stroke:#000000;stroke-opacity:1;stroke-linecap:round;stroke-linejoin:round"
       id="circle335" />
    <circle
       cx="17.700001"
       cy="-4.1750002"
       r="1.5"
       stroke="#000000"
       stroke-width="0.35 px"
       style="fill:none;stroke-width:0.35;stroke-miterlimit:4;stroke-dasharray:none;stroke:#000000;stroke-opacity:1;stroke-linecap:round;stroke-linejoin:round"
       id="circle337" />
    <circle
       cx="17.700001"
       cy="-9.6359997"
       r="1.5"
       stroke="#000000"
       stroke-width="0.35 px"
       style="fill:none;stroke-width:0.35;stroke-miterlimit:4;stroke-dasharray:none;stroke:#000000;stroke-opacity:1;stroke-linecap:round;stroke-linejoin:round"
       id="circle339" />
    <circle
       cx="17.700001"
       cy="20.364"
       r="1.5"
       stroke="#000000"
       stroke-width="0.35 px"
       style="fill:none;stroke-width:0.35;stroke-miterlimit:4;stroke-dasharray:none;stroke:#000000;stroke-opacity:1;stroke-linecap:round;stroke-linejoin:round"
       id="circle341" />
    <title
       id="title343">b'Sketch'</title>
  </g>
</svg>
